<svg id="eNgJ1q96uWd1" xmlns="http://www.w3.org/2000/svg" xmlns:xlink="http://www.w3.org/1999/xlink" viewBox="0 0 300 300" shape-rendering="geometricPrecision" text-rendering="geometricPrecision"><defs><linearGradient id="eNgJ1q96uWd3-fill" x1="0" y1="0.820781" x2="1.016209" y2="0.459067" spreadMethod="pad" gradientUnits="objectBoundingBox" gradientTransform="translate(0 0)"><stop id="eNgJ1q96uWd3-fill-0" offset="0%" stop-color="#6c3d14"/><stop id="eNgJ1q96uWd3-fill-1" offset="100%" stop-color="#b17b4c"/></linearGradient><linearGradient id="eNgJ1q96uWd6-fill" x1="0.5" y1="0" x2="0.5" y2="1" spreadMethod="pad" gradientUnits="objectBoundingBox" gradientTransform="translate(0 0)"><stop id="eNgJ1q96uWd6-fill-0" offset="39%" stop-color="#000"/><stop id="eNgJ1q96uWd6-fill-1" offset="69%" stop-color="#252424"/><stop id="eNgJ1q96uWd6-fill-2" offset="100%" stop-color="#696868"/></linearGradient></defs><rect width="300" height="200" rx="0" ry="0" transform="translate(0 0.000001)" fill="#fff" stroke-width="0"/><path d="M300,300h-300v-154.89333l300-76.7821L300,300Z" fill="url(#eNgJ1q96uWd3-fill)" stroke-width="0"/><g transform="translate(0 24.9286)"><path d="M10.057307,0c0,0,94.401298,0,94.401298,0l10.057309,40.106956L0,40.106956C0,40.106956,10.057307,0,10.057307,0Z" transform="matrix(.994266 0 0 0.354385 93.0704 205.054)" fill="#696868" stroke-width="0"/><rect width="41.6901" height="58.0495" rx="0" ry="0" transform="matrix(.772153 0 0 0.863031 133.904 165)" fill="url(#eNgJ1q96uWd6-fill)"/><rect width="105.545" height="25.8584" rx="0" ry="0" transform="matrix(1.07878 0 0 0.227213 93.0703 219.268)" stroke-width="0"/></g><g transform="translate(0 24.9286)"><rect width="250" height="150" rx="15" ry="15" transform="translate(25 25)" fill="#2e2e2e" stroke-width="0"/><rect width="230" height="130" rx="7.5" ry="7.5" transform="translate(35 35)" fill="#3584e4" stroke-width="0"/></g><rect width="143.53" height="22.4524" rx="11.23" ry="11.23" transform="translate(78.2349 163.453)" stroke-width="0"/><rect width="134.189" height="81.3736" rx="13" ry="13" transform="matrix(.756872 0 0 1 150 68.6263)" fill="#302f2f" stroke-width="0"/><path d="M57.71268,159.21205c-6.13852,0-11.11478-6.2205-11.11478-13.89388v-59.18109c0-7.67338,4.97626-13.89388,11.11478-13.89388h92.49976c6.13852,0,11.11478,6.2205,11.11478,13.89388v59.18109c0,7.67338-4.97626,13.89388-11.11478,13.89388h-92.49976ZM91.32973,81.6884c-2.3193,0-4.21094,1.91139-4.21094,4.2549s1.89163,4.2549,4.21094,4.2549h.59219l2.17124,15.29107c-6.87567,3.68981-11.16885,10.88655-11.18532,18.74816h42.10941c-.01684-7.86161-4.30961-15.05835-11.18532-18.74816l2.15483-15.29107h.60861c2.31935,0,4.21094-1.91139,4.21094-4.2549c0-1.13023-.44408-2.21055-1.23364-3.00834s-1.85875-1.24656-2.9773-1.24656h-25.26564Zm8.42188,46.80394v17.01961l4.21094,4.2549l4.21094-4.2549v-17.01961h-8.42188Z" fill="#1e1e1e" stroke-width="0"/></svg>
