<?xml version="1.0" encoding="UTF-8"?>
<svg width="16px" height="16px" xmlns="http://www.w3.org/2000/svg" xmlns:xlink="http://www.w3.org/1999/xlink" viewBox="0 0 16 16" version="1.1" >
<path d="M3.86666,16c-.47864,0-.86667-.38802-.86667-.86667v-1.13499h1.3v.26833c0,.23932.19401.43333.43333.43333h9.53334c.23932,0,.43333-.19401.43333-.43333v-9.14985h-.68176v-2.11683h1.1151c.47864,0,.86667.38802.86667.86667v11.26667c0,.47864-.38802.86667-.86667.86667h-11.26667Z" stroke-width="0"/><path d="M1.36667,13.5c-.47864,0-.86667-.38802-.86667-.86667v-11.26667c0-.47864.38802-.86667.86667-.86667h11.26667c.47864,0,.86667.38802.86667.86667v11.26667c0,.47864-.38802.86667-.86667.86667h-11.26667Zm10.4-1.3c.23932,0,.43333-.19401.43333-.43333v-7.44521h-10.4v7.44521c0,.23932.19401.43333.43333.43333h9.53334Z" transform="translate(-.424192-.424192)" stroke-width="0"/></svg>
