<svg height="16" viewBox="0 0 16 16" width="16" xmlns="http://www.w3.org/2000/svg"><path d="m1.84375 3.011719c-.207031.03125-.402344.128906-.550781.28125-.1875.1875-.292969.441406-.292969.707031s.105469.519531.292969.707031l6 6c.390625.390625 1.023437.390625 1.414062 0l6-6c.1875-.1875.292969-.441406.292969-.707031s-.105469-.519531-.292969-.707031c-.390625-.390625-1.023437-.390625-1.414062 0l-5.292969 5.292969-5.292969-5.292969c-.226562-.226563-.546875-.332031-.863281-.28125zm-.84375 7.988281c-.550781 0-1 .449219-1 1s.449219 1 1 1h14c.550781 0 1-.449219 1-1s-.449219-1-1-1zm0 0" fill="#2e3436"/></svg>