<svg height="16" viewBox="0 0 16 16" width="16" xmlns="http://www.w3.org/2000/svg"><path d="m1 3c-.550781 0-1 .449219-1 1s.449219 1 1 1h14c.550781 0 1-.449219 1-1s-.449219-1-1-1zm6.84375 2.011719c-.207031.03125-.402344.128906-.550781.28125l-6 6c-.1875.1875-.292969.441406-.292969.707031s.105469.519531.292969.707031c.390625.390625 1.023437.390625 1.414062 0l5.292969-5.292969 5.292969 5.292969c.390625.390625 1.023437.390625 1.414062 0 .1875-.1875.292969-.441406.292969-.707031s-.105469-.519531-.292969-.707031l-6-6c-.226562-.226563-.546875-.332031-.863281-.28125zm0 0" fill="#2e3436"/></svg>