<?xml version="1.0" encoding="UTF-8"?>
<svg width="16px" height="16px" xmlns="http://www.w3.org/2000/svg" xmlns:xlink="http://www.w3.org/1999/xlink" viewBox="0 0 16 16" version="1.1" >
<path d="M1.5,15.5c-.55228,0-1-.44772-1-1v-13c0-.55228.44772-1,1-1h13c.55228,0,1,.44772,1,1v13c0,.55228-.44772,1-1,1h-13Zm1.90381-2.90381c2.5384,2.53842,6.65397,2.53842,9.19238,0s2.53842-6.65396,0-9.19238-6.65396-2.53841-9.19238,0-2.53841,6.65397,0,9.19238Zm2.19449-.52313L12.07306,5.5983c1.07064,1.8128.82719,4.18684-.73036,5.74439s-3.93159,1.80101-5.74439.73036l-.00001.00001Zm4.80341-8.14611L3.92696,10.4017c-1.07064-1.8128-.82719-4.18684.73036-5.74439s3.93159-1.80101,5.74439-.73036Z" stroke-width="0"/></svg>
