<svg width="16" height="16" xmlns="http://www.w3.org/2000/svg">
    <path d="M5.917 9.261c.46 0 .833.373.833.833v5.417H5.5l-5-5v-1.25h5.417Z"/>
    <path d="M.5 1.5a1 1 0 0 1 1-1H5v4.299H2v5.295H.5V1.5Zm13 12.5a.5.5 0 0 0 .5-.5V13h1.5v1.5a1 1 0 0 1-1 1H6.11V14h7.39Z"/>
    <path d="M7.988.5c-.517 0-.939.421-.939.938s.422.937.939.937h.132l.484 3.37a4.684 4.684 0 0 0-2.494 4.13h9.39a4.684 4.684 0 0 0-2.494-4.13l.48-3.37h.136a.937.937 0 1 0 0-1.875H7.988Zm1.878 10.313v3.75l.939.937.939-.938v-3.75H9.866v.001Zm0 0"/>
</svg>
