<?xml version="1.0" encoding="UTF-8"?>
<svg width="16px" height="16px" xmlns="http://www.w3.org/2000/svg" xmlns:xlink="http://www.w3.org/1999/xlink" viewBox="0 0 16 16" version="1.1" >
<path d="M1.5,15.5c-.55228,0-1-.44772-1-1v-13c0-.55228.44772-1,1-1h3.5v4.29867h-3L2,13.5c0,.27614.22386.5.5.5h11c.27614,0,.5-.22386.5-.5v-.5h1.5v1.5c0,.55228-.44772,1-1,1h-13Z" stroke-width="0"/><path d="M4.878,0c-.517183,0-.939.421142-.939.9375s.421817.9375.939.9375h.132046l.484173,3.36914C3.961009,6.05713,3.003668,7.642821,3,9.375h9.39c-.003668-1.732179-.961009-3.31787-2.494219-4.13086L10.376286,1.875h.135714c.517183,0,.939-.421142.939-.9375c0-.249024-.099036-.487061-.275098-.662841s-.414481-.274659-.663902-.274659h-5.634ZM6.756,10.3125v3.75L7.695,15l.939-.9375v-3.75h-1.878Zm0,0" transform="translate(3.11 0.5)"/></svg>
