<?xml version="1.0" encoding="UTF-8"?>
<svg width="16px" height="16px" xmlns="http://www.w3.org/2000/svg" xmlns:xlink="http://www.w3.org/1999/xlink" viewBox="0 0 16 16" version="1.1" >
<path d="M4,16c-.55228,0-1-.4797-1-1.071429L3,2.071429C3,1.4797,3.44772,1,4,1h8c.55228,0,1,.4797,1,1.071429v12.857143C13,15.5203,12.55228,16,12,16h-8Zm6-2.142857c.55228,0,1-.4797,1-1.071429v-8.571429c0-.591729-.44772-1.071429-1-1.071429h-4c-.55228,0-1,.4797-1,1.071429v8.571429c0,.591729.44772,1.071429,1,1.071429h4Z" transform="translate(0-.5)" stroke-width="0"/><path d="M4,16c-.55228,0-1-.4797-1-1.071429L3,2.071429C3,1.4797,3.44772,1,4,1h8c.55228,0,1,.4797,1,1.071429v12.857143C13,15.5203,12.55228,16,12,16h-8Zm6-2.142857c.55228,0,1-.4797,1-1.071429v-8.571429c0-.591729-.44772-1.071429-1-1.071429h-4c-.55228,0-1,.4797-1,1.071429v8.571429c0,.591729.44772,1.071429,1,1.071429h4Z" transform="translate(10.5-.5)" stroke-width="0"/><path d="M4,16c-.55228,0-1-.4797-1-1.071429L3,2.071429C3,1.4797,3.44772,1,4,1h8c.55228,0,1,.4797,1,1.071429v12.857143C13,15.5203,12.55228,16,12,16h-8Zm6-2.142857c.55228,0,1-.4797,1-1.071429v-8.571429c0-.591729-.44772-1.071429-1-1.071429h-4c-.55228,0-1,.4797-1,1.071429v8.571429c0,.591729.44772,1.071429,1,1.071429h4Z" transform="translate(-10.5-.5)" stroke-width="0"/></svg>
