<?xml version="1.0" encoding="UTF-8"?>
<svg width="16px" height="16px" xmlns="http://www.w3.org/2000/svg" xmlns:xlink="http://www.w3.org/1999/xlink" viewBox="0 0 16 16" version="1.1" >
<g transform="translate(0-.292907)"><path d="M11,5.680253h-1.99167v6.854577h-3.01666v-6.854577h-1.99167L7.5,1.325476L11,5.680253Z" transform="matrix(.785254 0 0 0.800062 0.362206 2.748355)" stroke-width="0"/><path d="M3.8,15.79291c-.71797,0-1.3-.58203-1.3-1.3c0,0,0-.42071,0-1.09291h.43333v1.00625c0,.52651.42682.95333.95333.95333h10.22667c.52651,0,.95333-.42682.95333-.95333v-9.25983h-1.66666v-2.35351h.8c.71797,0,1.3.58203,1.3,1.3c0,.74006,0,1.0535,0,1.0535v9.3465c0,.71797-.58203,1.3-1.3,1.3h-10.4Z" stroke-width="0"/><path d="M1.8,13.79291c-.71797,0-1.3-.58203-1.3-1.3c0,0,0-9.61523,0-10.35529v-.04471c0-.71797.58203-1.3,1.3-1.3h10.4c.71797,0,1.3.58203,1.3,1.3c0,.74006,0,1.0535,0,1.0535v9.3465c0,.71797-.58203,1.3-1.3,1.3h-10.4Zm10.31333-.43333c.52651,0,.95333-.42682.95333-.95333v-9.25983h-12.13333v9.25983c0,.52651.42682.95333.95333.95333h10.22667Z" stroke-width="0"/><path d="M3.397984,0h2.315392v3.068186h-6.27014L3.397984,0Z" transform="matrix(.810691 0 0 0.65185 2.368218 10.776999)" stroke-width="0"/></g></svg>
