<?xml version="1.0" encoding="UTF-8"?>
<svg width="16px" height="16px" xmlns="http://www.w3.org/2000/svg" xmlns:xlink="http://www.w3.org/1999/xlink" viewBox="0 0 16 16" version="1.1" >
<g transform="translate(0-.292907)"><path d="M2,15.79291c-.82843,0-1.5-.67157-1.5-1.5c0,0,0-2.74317,0-5.60642v0v0c0-2.89496,0-5.91268,0-6.34199v-.05159c0-.82843.67157-1.5,1.5-1.5h12c.82843,0,1.5.67157,1.5,1.5c0,.85392,0,1.21558,0,1.21558v10.78442c0,.82843-.67157,1.5-1.5,1.5h-6.39357v0v0h-5.60643Zm11.9-.5c.27527,0,.52692-.10111.71984-.26821L3.10364,3.5085h-1.94797L12.90975,15.26258l-.03033.03033h1.02058Zm1.09999-1.09999v-1.37834L5.69391,3.5085h-1.88317l11.1057,11.1057c.05384-.12975.08356-.27204.08356-.42128h-.00001Zm0-10.68442h-.83228l.83228.83228v-.83228Zm-3.32871,0L15,6.83722v-1.79276l-.00172.00172-1.53767-1.53767-1.78933-.00001Zm-2.52506,0l5.85377,5.85377v-1.81795L10.96417,3.5085h-1.81795Zm-2.7452,0L15,12.10748v-2.0381L8.43912,3.5085h-2.0381ZM1,6.02606l9.26685,9.26685h1.96613L1,4.05993v1.96613ZM1,8.47938l6.81354,6.81354h1.74621L1.00001,6.73318L1,8.47938Zm0,2.72926l4.05394,4.05394-.03033.03033h2.08282L1,9.18648v2.02216Zm0,2.98428c0,.60751.49248,1.1,1.1,1.1h.09894L1,14.09398v.09894Zm3.37717,1.09999L1,11.91574v1.47113l1.90604,1.90604h1.47113Z" stroke-width="0"/></g></svg>
