<?xml version="1.0" encoding="UTF-8"?>
<svg width="16px" height="16px" xmlns="http://www.w3.org/2000/svg" xmlns:xlink="http://www.w3.org/1999/xlink" viewBox="0 0 16 16" version="1.1" ><g transform="translate(0-.292907)"><path d="M2,15.79291c-.82843,0-1.5-.67157-1.5-1.5v-12c0-.82843.67157-1.5,1.5-1.5h12c.82843,0,1.5.67157,1.5,1.5v12c0,.82843-.67157,1.5-1.5,1.5h-12Zm11.9-.5c.60751,0,1.1-.49249,1.1-1.1v-11.8c0-.60751-.49249-1.1-1.1-1.1h-11.8c-.60751,0-1.1.49249-1.1,1.1v11.8c0,.60751.49249,1.1,1.1,1.1h11.8Z" stroke-width="0"/><rect width="10" height="2" rx="0.75" ry="0.75" transform="matrix(1.24077 0 0 1 1.79615 5.292907)" stroke-width="0"/><rect width="10" height="2" rx="0.75" ry="0.75" transform="matrix(1.24077 0 0 1 1.79615 9.292907)" stroke-width="0"/></g></svg>
